solid ASCII
  facet normal 7.362636e-16 9.396926e-01 3.420201e-01
    outer loop
      vertex   1.819851e+01 3.180149e+01 5.000000e+01
      vertex   3.180149e+01 3.180149e+01 5.000000e+01
      vertex   0.000000e+00 5.000000e+01 0.000000e+00
    endloop
  endfacet
  facet normal -0.000000e+00 9.396926e-01 3.420201e-01
    outer loop
      vertex   0.000000e+00 5.000000e+01 0.000000e+00
      vertex   3.180149e+01 3.180149e+01 5.000000e+01
      vertex   5.000000e+01 5.000000e+01 0.000000e+00
    endloop
  endfacet
  facet normal 9.396926e-01 -7.362636e-16 3.420201e-01
    outer loop
      vertex   3.180149e+01 3.180149e+01 5.000000e+01
      vertex   3.180149e+01 1.819851e+01 5.000000e+01
      vertex   5.000000e+01 5.000000e+01 0.000000e+00
    endloop
  endfacet
  facet normal 9.396926e-01 0.000000e+00 3.420201e-01
    outer loop
      vertex   5.000000e+01 5.000000e+01 0.000000e+00
      vertex   3.180149e+01 1.819851e+01 5.000000e+01
      vertex   5.000000e+01 0.000000e+00 0.000000e+00
    endloop
  endfacet
  facet normal 4.908424e-16 -9.396926e-01 3.420201e-01
    outer loop
      vertex   3.180149e+01 1.819851e+01 5.000000e+01
      vertex   1.819851e+01 1.819851e+01 5.000000e+01
      vertex   5.000000e+01 0.000000e+00 0.000000e+00
    endloop
  endfacet
  facet normal 0.000000e+00 -9.396926e-01 3.420201e-01
    outer loop
      vertex   5.000000e+01 0.000000e+00 0.000000e+00
      vertex   1.819851e+01 1.819851e+01 5.000000e+01
      vertex   0.000000e+00 0.000000e+00 0.000000e+00
    endloop
  endfacet
  facet normal -9.396926e-01 -4.908424e-16 3.420201e-01
    outer loop
      vertex   1.819851e+01 1.819851e+01 5.000000e+01
      vertex   1.819851e+01 3.180149e+01 5.000000e+01
      vertex   0.000000e+00 0.000000e+00 0.000000e+00
    endloop
  endfacet
  facet normal -9.396926e-01 0.000000e+00 3.420201e-01
    outer loop
      vertex   0.000000e+00 0.000000e+00 0.000000e+00
      vertex   1.819851e+01 3.180149e+01 5.000000e+01
      vertex   0.000000e+00 5.000000e+01 0.000000e+00
    endloop
  endfacet
  facet normal 0.000000e+00 0.000000e+00 1.000000e+00
    outer loop
      vertex   3.180149e+01 3.180149e+01 5.000000e+01
      vertex   1.819851e+01 3.180149e+01 5.000000e+01
      vertex   3.180149e+01 1.819851e+01 5.000000e+01
    endloop
  endfacet
  facet normal 0.000000e+00 0.000000e+00 1.000000e+00
    outer loop
      vertex   3.180149e+01 1.819851e+01 5.000000e+01
      vertex   1.819851e+01 3.180149e+01 5.000000e+01
      vertex   1.819851e+01 1.819851e+01 5.000000e+01
    endloop
  endfacet
  facet normal 0.000000e+00 0.000000e+00 -1.000000e+00
    outer loop
      vertex   0.000000e+00 5.000000e+01 0.000000e+00
      vertex   5.000000e+01 5.000000e+01 0.000000e+00
      vertex   0.000000e+00 0.000000e+00 0.000000e+00
    endloop
  endfacet
  facet normal 0.000000e+00 0.000000e+00 -1.000000e+00
    outer loop
      vertex   0.000000e+00 0.000000e+00 0.000000e+00
      vertex   5.000000e+01 5.000000e+01 0.000000e+00
      vertex   5.000000e+01 0.000000e+00 0.000000e+00
    endloop
  endfacet
endsolid
